<svg aria-hidden="true" style="position: absolute; width: 0; height: 0; overflow: hidden;" version="1.1" xmlns="http://www.w3.org/2000/svg" xmlns:xlink="http://www.w3.org/1999/xlink">
<defs>
<symbol id="icon-arrow-slider" viewBox="0 0 32 32">
<path stroke-linejoin="miter" stroke-linecap="square" stroke-miterlimit="4" stroke-width="2.4845" d="M6.062 16.498h19.669M25.731 16.498c0 0-5.575-3.667-6.708-6.708M25.731 16.498c0 0-4.929 3.445-6.708 6.708"></path>
</symbol>
<symbol id="icon-arrow" viewBox="0 0 64 32">
<path stroke-linejoin="miter" stroke-linecap="square" stroke-miterlimit="4" stroke-width="1.3333" d="M6 16.534h50M56 16.534c0 0-5.984-3.935-7.2-7.2M56 16.534c0 0-5.29 3.698-7.2 7.2"></path>
</symbol>
<symbol id="icon-bag" viewBox="0 0 32 32">
<path d="M16.007 2.667c3.573 0 6.511 2.808 6.66 6.366h-0.035c0.004 0.103-0.016 0.206-0.058 0.301h0.208c1.623 0 3.322 1.125 4.003 3.84l0.074 0.32 1.025 8.26c0.738 5.268-2.144 7.483-6.076 7.577l-0.264 0.003h-11.053c-3.996 0-7.075-1.456-6.398-7.222l0.046-0.358 1.037-8.26c0.511-2.924 2.228-4.077 3.882-4.156l0.183-0.004h0.104c-0.018-0.1-0.018-0.201 0-0.301 0.149-3.558 3.087-6.366 6.66-6.366zM12.129 13.772c-0.651 0-1.178 0.543-1.178 1.213s0.528 1.213 1.178 1.213c0.651 0 1.178-0.543 1.178-1.213l-0.009-0.152c-0.073-0.598-0.568-1.061-1.169-1.061zM19.848 13.772c-0.651 0-1.178 0.543-1.178 1.213s0.528 1.213 1.178 1.213c0.651 0 1.178-0.543 1.178-1.213s-0.528-1.213-1.178-1.213zM15.954 4.403c-2.565 0-4.645 2.073-4.645 4.629 0.018 0.1 0.018 0.201 0 0.301h9.349c-0.037-0.096-0.057-0.198-0.058-0.301 0-2.557-2.080-4.629-4.645-4.629z"></path>
</symbol>
<symbol id="icon-dandruff" viewBox="0 0 32 32">
<path stroke-linejoin="miter" stroke-linecap="round" stroke-miterlimit="4" stroke-width="3.5556" d="M28 28l-5.981-5.992M25.333 14c0 3.006-1.194 5.889-3.319 8.014s-5.008 3.319-8.014 3.319-5.888-1.194-8.014-3.319c-2.125-2.125-3.319-5.008-3.319-8.014s1.194-5.888 3.319-8.014c2.125-2.125 5.008-3.319 8.014-3.319s5.889 1.194 8.014 3.319c2.125 2.125 3.319 5.008 3.319 8.014z"></path>
</symbol>
<symbol id="icon-facebook" viewBox="0 0 16 32">
<path d="M0 0h16v32h-16v-32z"></path>
<path d="M-1798.4-8510.4h2304v8995.2h-2304v-8995.2z"></path>
<path d="M-1798.4-254.4h2304v739.2h-2304v-739.2z"></path>
<path d="M13.040 5.272h2.899v-5.049c-0.5-0.069-2.22-0.224-4.223-0.224-4.179 0-7.042 2.629-7.042 7.46v4.447h-4.612v5.644h4.612v14.201h5.654v-14.2h4.425l0.703-5.644h-5.129v-3.888c0.001-1.631 0.441-2.748 2.713-2.748z"></path>
</symbol>
<symbol id="icon-groope" viewBox="0 0 25 32">
<path d="M24.615 15.753c0 8.58-5.51 15.535-12.308 15.535s-12.308-6.955-12.308-15.535c0-8.58 5.51-15.535 12.308-15.535s12.308 6.955 12.308 15.535z"></path>
<path d="M12.147 23.847c2.966 0 4.757-2.849 4.763-7.756 0.006-4.87-1.808-7.662-4.763-7.662-2.96 0-4.757 2.784-4.763 7.662-0.011 4.892 1.791 7.749 4.763 7.756zM12.147 21.238c-1.353 0-2.229-1.715-2.223-5.146 0.006-3.38 0.875-5.081 2.223-5.081 1.342 0 2.217 1.701 2.217 5.081 0.006 3.431-0.87 5.146-2.217 5.146z"></path>
</symbol>
<symbol id="icon-instagram" viewBox="0 0 32 32">
<path d="M10 0h12c5.522 0 10 4.478 10 10v12c0 5.522-4.478 10-10 10h-12c-5.522 0-10-4.478-10-10v-12c0-5.522 4.478-10 10-10zM22 29c3.86 0 7-3.14 7-7v-12c0-3.86-3.14-7-7-7h-12c-3.86 0-7 3.14-7 7v12c0 3.86 3.14 7 7 7h12z"></path>
<path d="M8 16c0-4.418 3.582-8 8-8s8 3.582 8 8c0 4.418-3.582 8-8 8s-8-3.582-8-8zM11 16c0 2.756 2.244 5 5 5s5-2.244 5-5c0-2.758-2.244-5-5-5s-5 2.242-5 5z"></path>
<path d="M25.666 7.4c0 0.589-0.477 1.066-1.066 1.066s-1.066-0.477-1.066-1.066c0-0.589 0.477-1.066 1.066-1.066s1.066 0.477 1.066 1.066z"></path>
</symbol>
<symbol id="icon-plus" viewBox="0 0 32 32">
<path d="M28.561 15.629c0-0.984-0.798-1.783-1.783-1.783h-8.913v-8.913c0-0.985-0.798-1.783-1.783-1.783s-1.783 0.798-1.783 1.783v8.913h-8.913c-0.984 0-1.783 0.798-1.783 1.783s0.798 1.783 1.783 1.783h8.913v8.913c0 0.984 0.798 1.783 1.783 1.783s1.783-0.798 1.783-1.783v-8.913h8.913c0.984 0 1.783-0.798 1.783-1.783z"></path>
</symbol>
<symbol id="icon-star" viewBox="0 0 34 32">
<path d="M24.329 18.373c-0.332 0.322-0.485 0.788-0.409 1.244l1.14 6.311c0.096 0.535-0.13 1.076-0.577 1.385-0.439 0.321-1.022 0.359-1.501 0.103l-5.681-2.963c-0.198-0.105-0.417-0.162-0.641-0.168h-0.348c-0.121 0.018-0.239 0.056-0.346 0.116l-5.682 2.977c-0.281 0.141-0.599 0.191-0.911 0.141-0.759-0.144-1.266-0.867-1.142-1.63l1.142-6.311c0.076-0.46-0.077-0.929-0.409-1.256l-4.632-4.489c-0.387-0.376-0.522-0.94-0.345-1.449 0.172-0.508 0.611-0.879 1.14-0.962l6.375-0.925c0.485-0.050 0.911-0.345 1.129-0.781l2.809-5.759c0.067-0.128 0.153-0.246 0.257-0.346l0.115-0.090c0.060-0.067 0.13-0.122 0.207-0.167l0.14-0.051 0.218-0.090h0.54c0.482 0.050 0.907 0.339 1.129 0.77l2.846 5.734c0.205 0.419 0.604 0.711 1.065 0.781l6.375 0.925c0.539 0.077 0.989 0.449 1.167 0.962 0.168 0.514 0.023 1.079-0.372 1.449l-4.797 4.541z"></path>
</symbol>
<symbol id="icon-twitter" viewBox="0 0 40 32">
<path d="M39.111 3.762c-1.455 0.638-3.004 1.061-4.62 1.266 1.662-0.992 2.931-2.552 3.527-4.432-1.55 0.924-3.261 1.577-5.084 1.941-1.472-1.567-3.569-2.537-5.857-2.537-4.439 0-8.013 3.603-8.013 8.020 0 0.636 0.054 1.247 0.186 1.828-6.666-0.325-12.564-3.52-16.527-8.387-0.692 1.2-1.098 2.574-1.098 4.053 0 2.777 1.43 5.238 3.562 6.664-1.288-0.024-2.552-0.398-3.623-0.988 0 0.024 0 0.056 0 0.088 0 3.896 2.779 7.133 6.424 7.878-0.653 0.178-1.364 0.264-2.102 0.264-0.513 0-1.032-0.029-1.518-0.137 1.039 3.175 3.987 5.51 7.492 5.586-2.728 2.134-6.192 3.42-9.942 3.42-0.658 0-1.288-0.029-1.919-0.11 3.552 2.29 7.761 3.598 12.3 3.598 14.755 0 22.821-12.222 22.821-22.816 0-0.354-0.012-0.697-0.029-1.036 1.591-1.129 2.928-2.54 4.019-4.163z"></path>
</symbol>
</defs>
</svg>
